<?xml version="1.0" encoding="UTF-8"?>
<svg width="80px" height="80px" viewBox="0 0 80 80" version="1.1" xmlns="http://www.w3.org/2000/svg" xmlns:xlink="http://www.w3.org/1999/xlink">
    <title>Amazon Athena</title>
    <g id="Amazon-Athena" stroke="none" stroke-width="1" fill="none" fill-rule="evenodd">
        <rect fill="#FFFFFF" x="0" y="0" width="80" height="80"></rect>
        <g id="Icon-Architecture/64/Arch_Amazon-Athena_64" transform="translate(10.000000, 10.000000)" fill="#4D27AA">
            <path d="M38.0162,28.0015 L45.9962,28.0015 L42.0062,20.9975 L38.0162,28.0015 Z M43.9512,16.9985 C42.0552,16.9985 40.4962,18.0805 39.6772,19.6905 L32.0062,34.0005 L35.9572,34.0005 L37.0962,31.7435 L46.9162,31.7435 L48.0552,34.0005 L52.0062,34.0005 L44.3352,19.6905 C43.5152,18.0805 41.9562,16.9985 43.9512,16.9985 L43.9512,16.9985 Z M58.0062,45.9995 C58.0062,47.1025 57.1102,47.9995 56.0062,47.9995 L30.0062,47.9995 C28.9032,47.9995 28.0062,47.1025 28.0062,45.9995 L28.0062,37.9995 L32.0062,37.9995 L32.0062,43.9995 L54.0062,43.9995 L54.0062,37.9995 L58.0062,37.9995 L58.0062,45.9995 Z M30.0062,53.9995 L56.0062,53.9995 C60.4152,53.9995 64.0062,50.4095 64.0062,45.9995 L64.0062,33.9995 L58.0062,33.9995 L58.0062,26.7275 C58.3312,26.1495 58.0062,26.0005 58.0062,26.0005 L28.0062,26.0005 C28.0062,26.0005 27.6812,26.1495 28.0062,26.7275 L28.0062,33.9995 L22.0062,33.9995 L22.0062,45.9995 C22.0062,50.4095 25.5972,53.9995 30.0062,53.9995 L30.0062,53.9995 Z M13.4062,44.0145 C13.3072,44.0145 13.2062,43.9995 13.1062,43.9695 C12.4392,43.7945 12.0822,43.0975 12.2582,42.4305 L18.2922,22.4305 C18.4672,21.7635 19.1642,21.4065 19.8312,21.5825 C20.4982,21.7575 20.8542,22.4545 20.6782,23.1215 L14.6443,43.1215 C14.5003,43.6755 13.9742,44.0145 13.4062,44.0145 L13.4062,44.0145 Z M31.0062,6.9995 L38.0062,13.9995 L7.0062,13.9995 L7.0062,6.9995 L31.0062,6.9995 Z M32.4202,2.9995 L5.5932,2.9995 C4.4902,2.9995 3.5932,3.8955 3.5932,4.9995 L3.5932,15.9995 C3.5932,17.1025 4.4902,17.9995 5.5932,17.9995 L31.5932,17.9995 L9.8512,17.9995 C8.3962,17.9995 7.1692,19.1455 7.0222,20.6095 C7.0142,20.7035 7.0062,20.8015 7.0062,20.8955 L7.0062,23.1995 L3.5932,33.8865 C3.2322,34.9545 2.5162,36.8375 2.0082,38.1525 C1.6552,39.0645 1.3382,39.9025 1.1562,40.4745 C0.9292,41.1385 0.7922,41.8355 0.7362,42.5535 C0.7352,42.5605 0.7342,42.5685 0.7332,42.5755 C0.7312,42.5915 0.7292,42.6075 0.7282,42.6235 C0.7232,42.6555 0.7212,42.6885 0.7182,42.7215 C0.7152,42.7525 0.7122,42.7835 0.7112,42.8145 C0.7092,42.8435 0.7072,42.8735 0.7072,42.9035 C0.7052,43.0485 0.7112,43.1935 0.7272,43.3425 C0.7282,43.3505 0.7282,43.3585 0.7292,43.3665 C0.7472,43.5175 0.7762,43.6685 0.8172,43.8195 C0.8182,43.8235 0.8182,43.8265 0.8192,43.8305 C0.8612,43.9795 0.9142,44.1265 0.9782,44.2725 C0.9922,44.3035 1.0082,44.3345 1.0232,44.3655 C1.0842,44.4935 1.1542,44.6185 1.2352,44.7405 C1.2622,44.7795 1.2912,44.8175 1.3202,44.8545 C1.4022,44.9635 1.4922,45.0685 1.5932,45.1685 C1.6392,45.2145 1.6882,45.2595 1.7372,45.3035 C1.8332,45.3905 1.9352,45.4735 2.0452,45.5495 C2.1102,45.5965 2.1782,45.6405 2.2462,45.6825 C2.3492,45.7435 2.4562,45.7995 2.5672,45.8485 C2.6482,45.8855 2.7302,45.9185 2.8142,45.9485 C2.9152,45.9845 3.0192,46.0155 3.1252,46.0405 C3.2202,46.0635 3.3152,46.0825 3.4132,46.0975 C3.5062,46.1115 3.6002,46.1215 3.6962,46.1275 C3.7402,46.1305 3.7822,46.1365 3.8262,46.1375 C3.8582,46.1385 3.8902,46.1385 3.9232,46.1385 C3.9562,46.1385 3.9882,46.1375 4.0202,46.1365 C4.0642,46.1355 4.1062,46.1305 4.1502,46.1275 C4.2462,46.1215 4.3412,46.1115 4.4342,46.0975 C4.5312,46.0825 4.6272,46.0635 4.7212,46.0405 C4.8272,46.0155 4.9312,45.9845 5.0322,45.9485 C5.1162,45.9185 5.1992,45.8855 5.2792,45.8485 C5.3902,45.7995 5.4972,45.7435 5.6002,45.6825 C5.6682,45.6405 5.7362,45.5965 5.8012,45.5495 C5.9112,45.4735 6.0132,45.3905 6.1092,45.3035 C6.1582,45.2595 6.2072,45.2145 6.2532,45.1685 C6.3542,45.0685 6.4452,44.9635 6.5262,44.8545 C6.5552,44.8175 6.5842,44.7795 6.6112,44.7405 C6.6922,44.6185 6.7622,44.4935 6.8232,44.3655 C6.8382,44.3345 6.8542,44.3035 6.8682,44.2725 C6.9322,44.1265 6.9852,43.9795 7.0272,43.8305 C7.0282,43.8265 7.0282,43.8235 7.0292,43.8195 C7.0702,43.6685 7.0992,43.5175 7.1172,43.3665 C7.1182,43.3585 7.1182,43.3505 7.1192,43.3425 C7.1352,43.1935 7.1412,43.0485 7.1392,42.9035 C7.1392,42.8735 7.1372,42.8435 7.1352,42.8145 C7.1332,42.7835 7.1302,42.7525 7.1282,42.7215 C7.1242,42.6885 7.1232,42.6555 7.1172,42.6235 C7.1162,42.6075 7.1142,42.5915 7.1132,42.5755 C7.1122,42.5685 7.1112,42.5605 7.1102,42.5535 C7.0542,41.8355 6.9172,41.1385 6.6902,40.4735 C6.5082,39.9025 6.1922,39.0645 5.8382,38.1525 C5.3302,36.8375 4.6142,34.9545 4.2532,33.8865 L7.0062,23.1995 L7.0062,61.9995 L59.0062,61.9995 L59.0062,21.9995 C59.0062,19.2385 61.2442,16.9995 64.0062,16.9995 L64.0062,13.9995 L42.0062,13.9995 L35.0062,6.9995 L64.0062,6.9995 L64.0062,4.9995 C64.0062,3.8955 63.1102,2.9995 62.0062,2.9995 L32.4202,2.9995 Z" id="Amazon-Athena-Icon_64_Squid"></path>
        </g>
    </g>
</svg> 